<mxfile host="drawio-plugin" modified="2021-04-28T01:16:17.895Z" agent="5.0 (Windows NT 6.2; Win64; x64) AppleWebKit/537.36 (KHTML, like Gecko) Chrome/87.0.4280.141 Safari/537.36" etag="h-IIVvnygxKJ_7g-7zzw" version="13.7.9" type="embed"><diagram id="8RA0QuS_Wwj2STBMKOOA" name="Page-1"><mxGraphModel dx="876" dy="743" grid="1" gridSize="10" guides="1" tooltips="1" connect="1" arrows="1" fold="1" page="1" pageScale="1" pageWidth="827" pageHeight="1169" math="0" shadow="0"><root><mxCell id="0"/><mxCell id="1" parent="0"/><mxCell id="20" style="edgeStyle=orthogonalEdgeStyle;rounded=0;orthogonalLoop=1;jettySize=auto;html=1;exitX=0.5;exitY=1;exitDx=0;exitDy=0;entryX=0;entryY=0.5;entryDx=0;entryDy=0;startArrow=none;startFill=0;endArrow=classic;endFill=1;" parent="1" source="2" target="9" edge="1"><mxGeometry relative="1" as="geometry"><Array as="points"><mxPoint x="140" y="455"/></Array></mxGeometry></mxCell><mxCell id="60" value="/subscriptions" style="edgeLabel;html=1;align=center;verticalAlign=middle;resizable=0;points=[];" parent="20" vertex="1" connectable="0"><mxGeometry x="-0.8013" relative="1" as="geometry"><mxPoint as="offset"/></mxGeometry></mxCell><mxCell id="21" style="edgeStyle=orthogonalEdgeStyle;rounded=0;orthogonalLoop=1;jettySize=auto;html=1;exitX=0.75;exitY=1;exitDx=0;exitDy=0;startArrow=none;startFill=0;endArrow=classic;endFill=1;entryX=0.5;entryY=0;entryDx=0;entryDy=0;" parent="1" source="2" target="8" edge="1"><mxGeometry relative="1" as="geometry"><mxPoint x="220" y="320" as="targetPoint"/></mxGeometry></mxCell><mxCell id="59" value="/notify" style="edgeLabel;html=1;align=center;verticalAlign=middle;resizable=0;points=[];" parent="21" vertex="1" connectable="0"><mxGeometry x="-0.6993" relative="1" as="geometry"><mxPoint as="offset"/></mxGeometry></mxCell><mxCell id="78" style="edgeStyle=orthogonalEdgeStyle;rounded=0;orthogonalLoop=1;jettySize=auto;html=1;exitX=1;exitY=0.5;exitDx=0;exitDy=0;entryX=0;entryY=0.5;entryDx=0;entryDy=0;" edge="1" parent="1" source="2" target="74"><mxGeometry relative="1" as="geometry"/></mxCell><mxCell id="79" value="/users" style="edgeLabel;html=1;align=center;verticalAlign=middle;resizable=0;points=[];" vertex="1" connectable="0" parent="78"><mxGeometry x="0.1321" y="-2" relative="1" as="geometry"><mxPoint as="offset"/></mxGeometry></mxCell><mxCell id="2" value="Gateway" style="rounded=0;whiteSpace=wrap;html=1;fillColor=#dae8fc;strokeColor=#6c8ebf;fontColor=#030303;" parent="1" vertex="1"><mxGeometry x="80" y="120" width="120" height="30" as="geometry"/></mxCell><mxCell id="10" style="edgeStyle=orthogonalEdgeStyle;rounded=0;orthogonalLoop=1;jettySize=auto;html=1;exitX=1;exitY=0.5;exitDx=0;exitDy=0;" parent="1" source="3" target="4" edge="1"><mxGeometry relative="1" as="geometry"/></mxCell><mxCell id="65" value="Fetch posts" style="edgeLabel;html=1;align=center;verticalAlign=middle;resizable=0;points=[];" parent="10" vertex="1" connectable="0"><mxGeometry x="-0.25" y="-1" relative="1" as="geometry"><mxPoint x="8" y="-1" as="offset"/></mxGeometry></mxCell><mxCell id="3" value="Explorer" style="rounded=0;whiteSpace=wrap;html=1;fillColor=#e1d5e7;strokeColor=#9673a6;fontColor=#050505;" parent="1" vertex="1"><mxGeometry x="599.17" y="80" width="120" height="30" as="geometry"/></mxCell><mxCell id="4" value="reddit.com" style="ellipse;shape=cloud;whiteSpace=wrap;html=1;fillColor=#F5F5F5;fontColor=#000000;" parent="1" vertex="1"><mxGeometry x="700" y="20" width="120" height="40" as="geometry"/></mxCell><mxCell id="12" style="edgeStyle=orthogonalEdgeStyle;rounded=0;orthogonalLoop=1;jettySize=auto;html=1;exitX=1;exitY=0.5;exitDx=0;exitDy=0;entryX=0.5;entryY=1;entryDx=0;entryDy=0;" parent="1" source="7" target="3" edge="1"><mxGeometry relative="1" as="geometry"><mxPoint x="560" y="85" as="targetPoint"/></mxGeometry></mxCell><mxCell id="57" value="Fetch Media" style="edgeLabel;html=1;align=center;verticalAlign=middle;resizable=0;points=[];" parent="12" vertex="1" connectable="0"><mxGeometry x="0.2067" y="-1" relative="1" as="geometry"><mxPoint as="offset"/></mxGeometry></mxCell><mxCell id="14" style="edgeStyle=orthogonalEdgeStyle;rounded=0;orthogonalLoop=1;jettySize=auto;html=1;exitX=0.75;exitY=1;exitDx=0;exitDy=0;entryX=0.724;entryY=0.034;entryDx=0;entryDy=0;entryPerimeter=0;" parent="1" source="7" target="13" edge="1"><mxGeometry relative="1" as="geometry"/></mxCell><mxCell id="62" value="New posts Available" style="edgeLabel;html=1;align=center;verticalAlign=middle;resizable=0;points=[];" parent="14" vertex="1" connectable="0"><mxGeometry x="-0.3124" relative="1" as="geometry"><mxPoint y="-1" as="offset"/></mxGeometry></mxCell><mxCell id="16" style="edgeStyle=orthogonalEdgeStyle;rounded=0;orthogonalLoop=1;jettySize=auto;html=1;exitX=0.25;exitY=1;exitDx=0;exitDy=0;entryX=0.5;entryY=0;entryDx=0;entryDy=0;entryPerimeter=0;dashed=1;endArrow=none;endFill=0;startArrow=classic;startFill=1;" parent="1" source="7" target="13" edge="1"><mxGeometry relative="1" as="geometry"><Array as="points"><mxPoint x="530" y="220"/><mxPoint x="420" y="220"/></Array></mxGeometry></mxCell><mxCell id="63" value="Scrape New Subscription" style="edgeLabel;html=1;align=center;verticalAlign=middle;resizable=0;points=[];" parent="16" vertex="1" connectable="0"><mxGeometry x="0.1996" relative="1" as="geometry"><mxPoint x="30" as="offset"/></mxGeometry></mxCell><mxCell id="7" value="Scraper" style="rounded=0;whiteSpace=wrap;html=1;fillColor=#fff2cc;strokeColor=#d6b656;fontColor=#000000;" parent="1" vertex="1"><mxGeometry x="500" y="156" width="120" height="30" as="geometry"/></mxCell><mxCell id="23" style="edgeStyle=orthogonalEdgeStyle;rounded=0;orthogonalLoop=1;jettySize=auto;html=1;exitX=0.5;exitY=1;exitDx=0;exitDy=0;entryX=0.5;entryY=0;entryDx=0;entryDy=0;entryPerimeter=0;startArrow=none;startFill=0;endArrow=none;endFill=0;" parent="1" source="8" target="22" edge="1"><mxGeometry relative="1" as="geometry"/></mxCell><mxCell id="8" value="Notifier" style="rounded=0;whiteSpace=wrap;html=1;fillColor=#d5e8d4;strokeColor=#82b366;fontColor=#000000;" parent="1" vertex="1"><mxGeometry x="160" y="325" width="120" height="30" as="geometry"/></mxCell><mxCell id="67" style="edgeStyle=orthogonalEdgeStyle;rounded=0;orthogonalLoop=1;jettySize=auto;html=1;exitX=1;exitY=0.25;exitDx=0;exitDy=0;entryX=0;entryY=0.5;entryDx=0;entryDy=0;entryPerimeter=0;" parent="1" source="9" target="26" edge="1"><mxGeometry relative="1" as="geometry"/></mxCell><mxCell id="68" style="edgeStyle=orthogonalEdgeStyle;rounded=0;orthogonalLoop=1;jettySize=auto;html=1;exitX=1;exitY=0.75;exitDx=0;exitDy=0;entryX=0;entryY=0.5;entryDx=0;entryDy=0;entryPerimeter=0;" parent="1" source="9" target="27" edge="1"><mxGeometry relative="1" as="geometry"/></mxCell><mxCell id="9" value="Posts" style="rounded=0;whiteSpace=wrap;html=1;fillColor=#f8cecc;strokeColor=#b85450;fontColor=#080808;" parent="1" vertex="1"><mxGeometry x="360" y="440" width="120" height="30" as="geometry"/></mxCell><mxCell id="17" style="edgeStyle=orthogonalEdgeStyle;rounded=0;orthogonalLoop=1;jettySize=auto;html=1;exitX=0;exitY=0.5;exitDx=0;exitDy=0;exitPerimeter=0;entryX=1;entryY=0.5;entryDx=0;entryDy=0;dashed=1;startArrow=none;startFill=0;endArrow=classic;endFill=1;" parent="1" source="13" target="8" edge="1"><mxGeometry relative="1" as="geometry"/></mxCell><mxCell id="64" value="Notify user" style="edgeLabel;html=1;align=center;verticalAlign=middle;resizable=0;points=[];" parent="17" vertex="1" connectable="0"><mxGeometry x="0.2501" relative="1" as="geometry"><mxPoint x="12.49" y="-10" as="offset"/></mxGeometry></mxCell><mxCell id="71" value="Persist posts" style="edgeStyle=orthogonalEdgeStyle;rounded=0;orthogonalLoop=1;jettySize=auto;html=1;entryX=0.25;entryY=0;entryDx=0;entryDy=0;dashed=1;" parent="1" target="9" edge="1"><mxGeometry x="0.2308" y="-20" relative="1" as="geometry"><mxPoint x="390" y="362" as="sourcePoint"/><mxPoint as="offset"/></mxGeometry></mxCell><mxCell id="13" value="" style="aspect=fixed;pointerEvents=1;shadow=0;dashed=0;html=1;strokeColor=none;labelPosition=center;verticalLabelPosition=bottom;verticalAlign=top;align=center;fillColor=#00188D;shape=mxgraph.azure.queue_generic" parent="1" vertex="1"><mxGeometry x="353.34" y="320" width="133.33" height="40" as="geometry"/></mxCell><mxCell id="22" value="Notifications" style="shape=cylinder3;whiteSpace=wrap;html=1;boundedLbl=1;backgroundOutline=1;size=15;fillColor=#d5e8d4;strokeColor=#82b366;fontColor=#000000;" parent="1" vertex="1"><mxGeometry x="180" y="370" width="80" height="55" as="geometry"/></mxCell><mxCell id="26" value="Metadata" style="shape=cylinder3;whiteSpace=wrap;html=1;boundedLbl=1;backgroundOutline=1;size=15;fillColor=#fff2cc;strokeColor=#d6b656;fontColor=#080808;" parent="1" vertex="1"><mxGeometry x="530" y="390" width="80" height="60" as="geometry"/></mxCell><mxCell id="27" value="Object Storage" style="shape=cylinder3;whiteSpace=wrap;html=1;boundedLbl=1;backgroundOutline=1;size=15;fillColor=#fff2cc;strokeColor=#d6b656;fontColor=#0A0A0A;" parent="1" vertex="1"><mxGeometry x="530" y="460" width="80" height="60" as="geometry"/></mxCell><mxCell id="30" value="" style="aspect=fixed;html=1;points=[];align=center;image;fontSize=12;image=img/lib/azure2/iot/Function_Apps.svg;dashed=1;" parent="1" vertex="1"><mxGeometry x="608.66" y="85" width="22.67" height="20" as="geometry"/></mxCell><mxCell id="32" value="" style="aspect=fixed;html=1;points=[];align=center;image;fontSize=12;image=img/lib/azure2/databases/Azure_Cosmos_DB.svg;dashed=1;" parent="1" vertex="1"><mxGeometry x="558" y="395" width="24" height="24" as="geometry"/></mxCell><mxCell id="33" value="" style="aspect=fixed;html=1;points=[];align=center;image;fontSize=12;image=img/lib/mscae/BlobBlock.svg;dashed=1;" parent="1" vertex="1"><mxGeometry x="558.19" y="470" width="23.81" height="20" as="geometry"/></mxCell><mxCell id="35" value="" style="aspect=fixed;html=1;points=[];align=center;image;fontSize=12;image=img/lib/azure2/databases/Azure_Cosmos_DB.svg;dashed=1;" parent="1" vertex="1"><mxGeometry x="208" y="370" width="24" height="24" as="geometry"/></mxCell><mxCell id="36" value="" style="shape=image;imageAspect=0;aspect=fixed;verticalLabelPosition=bottom;verticalAlign=top;dashed=1;image=https://dzone.com/storage/temp/12434118-spring-boot-logo.png;" parent="1" vertex="1"><mxGeometry x="507.73" y="161" width="22.27" height="20" as="geometry"/></mxCell><mxCell id="38" value="" style="shape=image;imageAspect=0;aspect=fixed;verticalLabelPosition=bottom;verticalAlign=top;dashed=1;image=https://dzone.com/storage/temp/12434118-spring-boot-logo.png;" parent="1" vertex="1"><mxGeometry x="367.73" y="445" width="22.27" height="20" as="geometry"/></mxCell><mxCell id="39" value="" style="shape=image;imageAspect=0;aspect=fixed;verticalLabelPosition=bottom;verticalAlign=top;dashed=1;image=https://dzone.com/storage/temp/12434118-spring-boot-logo.png;" parent="1" vertex="1"><mxGeometry x="90" y="125" width="22.27" height="20" as="geometry"/></mxCell><mxCell id="40" value="&lt;font style=&quot;font-size: 23px&quot;&gt;Légende&lt;/font&gt;" style="text;html=1;strokeColor=none;fillColor=none;align=center;verticalAlign=middle;whiteSpace=wrap;rounded=0;dashed=1;" parent="1" vertex="1"><mxGeometry x="20" y="570" width="80" height="15" as="geometry"/></mxCell><mxCell id="41" value="" style="shape=cylinder3;whiteSpace=wrap;html=1;boundedLbl=1;backgroundOutline=1;size=15;strokeColor=#000000;fillColor=#FFFFFF;" parent="1" vertex="1"><mxGeometry x="40" y="610" width="40" height="50" as="geometry"/></mxCell><mxCell id="42" value="" style="rounded=0;whiteSpace=wrap;html=1;fillColor=#FCFCFC;strokeColor=#0F0F0F;" parent="1" vertex="1"><mxGeometry x="15" y="690" width="90" height="30" as="geometry"/></mxCell><mxCell id="43" value="" style="aspect=fixed;html=1;points=[];align=center;image;fontSize=12;image=img/lib/azure2/iot/Function_Apps.svg;dashed=1;" parent="1" vertex="1"><mxGeometry x="257.33" y="615" width="45.34" height="40" as="geometry"/></mxCell><mxCell id="44" value="" style="verticalLabelPosition=bottom;html=1;verticalAlign=top;align=center;strokeColor=none;fillColor=#00BEF2;shape=mxgraph.azure.azure_cache;dashed=1;" parent="1" vertex="1"><mxGeometry x="265" y="680" width="30" height="35" as="geometry"/></mxCell><mxCell id="45" value="" style="shape=image;imageAspect=0;aspect=fixed;verticalLabelPosition=bottom;verticalAlign=top;dashed=1;image=https://dzone.com/storage/temp/12434118-spring-boot-logo.png;" parent="1" vertex="1"><mxGeometry x="415.46" y="615" width="44.54" height="40" as="geometry"/></mxCell><mxCell id="46" value="" style="aspect=fixed;html=1;points=[];align=center;image;fontSize=12;image=img/lib/azure2/databases/Azure_Cosmos_DB.svg;dashed=1;" parent="1" vertex="1"><mxGeometry x="420" y="680" width="40" height="40" as="geometry"/></mxCell><mxCell id="47" value="" style="aspect=fixed;html=1;points=[];align=center;image;fontSize=12;image=img/lib/mscae/BlobBlock.svg;dashed=1;" parent="1" vertex="1"><mxGeometry x="599.17" y="615" width="41.67" height="35" as="geometry"/></mxCell><mxCell id="48" value="" style="aspect=fixed;pointerEvents=1;shadow=0;dashed=0;html=1;strokeColor=none;labelPosition=center;verticalLabelPosition=bottom;verticalAlign=top;align=center;fillColor=#00188D;shape=mxgraph.azure.queue_generic" parent="1" vertex="1"><mxGeometry x="586" y="687.3" width="68" height="20.4" as="geometry"/></mxCell><mxCell id="49" value="&lt;font style=&quot;font-size: 16px&quot;&gt;Stockage&lt;/font&gt;" style="text;html=1;strokeColor=none;fillColor=none;align=center;verticalAlign=middle;whiteSpace=wrap;rounded=0;" parent="1" vertex="1"><mxGeometry x="120" y="622.5" width="80" height="20" as="geometry"/></mxCell><mxCell id="50" value="&lt;font style=&quot;font-size: 16px&quot;&gt;Service&lt;/font&gt;" style="text;html=1;strokeColor=none;fillColor=none;align=center;verticalAlign=middle;whiteSpace=wrap;rounded=0;" parent="1" vertex="1"><mxGeometry x="120" y="695" width="80" height="20" as="geometry"/></mxCell><mxCell id="51" value="&lt;font style=&quot;font-size: 16px&quot;&gt;Azure Cloud Function&lt;/font&gt;" style="text;html=1;strokeColor=none;fillColor=none;align=center;verticalAlign=middle;whiteSpace=wrap;rounded=0;" parent="1" vertex="1"><mxGeometry x="312.66999999999996" y="622.5" width="80" height="20" as="geometry"/></mxCell><mxCell id="52" value="&lt;font style=&quot;font-size: 16px&quot;&gt;Azure Cache&lt;/font&gt;" style="text;html=1;strokeColor=none;fillColor=none;align=center;verticalAlign=middle;whiteSpace=wrap;rounded=0;" parent="1" vertex="1"><mxGeometry x="312.66999999999996" y="690" width="80" height="20" as="geometry"/></mxCell><mxCell id="53" value="&lt;font style=&quot;font-size: 16px&quot;&gt;Azure Cosmos DB&lt;/font&gt;" style="text;html=1;strokeColor=none;fillColor=none;align=center;verticalAlign=middle;whiteSpace=wrap;rounded=0;" parent="1" vertex="1"><mxGeometry x="478" y="687.5" width="80" height="20" as="geometry"/></mxCell><mxCell id="54" value="&lt;font style=&quot;font-size: 16px&quot;&gt;Spring Boot&lt;/font&gt;" style="text;html=1;strokeColor=none;fillColor=none;align=center;verticalAlign=middle;whiteSpace=wrap;rounded=0;" parent="1" vertex="1"><mxGeometry x="480" y="622.5" width="80" height="20" as="geometry"/></mxCell><mxCell id="55" value="&lt;font style=&quot;font-size: 16px&quot;&gt;Azure Blob Storage&lt;/font&gt;" style="text;html=1;strokeColor=none;fillColor=none;align=center;verticalAlign=middle;whiteSpace=wrap;rounded=0;" parent="1" vertex="1"><mxGeometry x="654" y="622.5" width="80" height="20" as="geometry"/></mxCell><mxCell id="56" value="&lt;font style=&quot;font-size: 16px&quot;&gt;Azure Queue Storage&lt;/font&gt;" style="text;html=1;strokeColor=none;fillColor=none;align=center;verticalAlign=middle;whiteSpace=wrap;rounded=0;" parent="1" vertex="1"><mxGeometry x="660" y="690" width="80" height="20" as="geometry"/></mxCell><mxCell id="73" value="" style="shape=image;imageAspect=0;aspect=fixed;verticalLabelPosition=bottom;verticalAlign=top;dashed=1;image=https://dzone.com/storage/temp/12434118-spring-boot-logo.png;" parent="1" vertex="1"><mxGeometry x="170.00000000000003" y="330" width="22.27" height="20" as="geometry"/></mxCell><mxCell id="83" style="edgeStyle=orthogonalEdgeStyle;rounded=0;orthogonalLoop=1;jettySize=auto;html=1;exitX=0.5;exitY=0;exitDx=0;exitDy=0;entryX=0.5;entryY=1;entryDx=0;entryDy=0;entryPerimeter=0;fontColor=#000000;" edge="1" parent="1" source="74" target="80"><mxGeometry relative="1" as="geometry"/></mxCell><mxCell id="84" value="" style="group" vertex="1" connectable="0" parent="1"><mxGeometry x="280" y="15" width="92.27" height="70" as="geometry"/></mxCell><mxCell id="80" value="users +&amp;nbsp;&lt;span style=&quot;color: rgb(13 , 13 , 13)&quot;&gt;Subscriptions&lt;/span&gt;" style="shape=cylinder3;whiteSpace=wrap;html=1;boundedLbl=1;backgroundOutline=1;size=15;fillColor=#b0e3e6;strokeColor=#0e8088;fontColor=#000000;" vertex="1" parent="84"><mxGeometry width="92.27000000000001" height="70" as="geometry"/></mxCell><mxCell id="81" value="" style="aspect=fixed;html=1;points=[];align=center;image;fontSize=12;image=img/lib/azure2/databases/Azure_Cosmos_DB.svg;dashed=1;" vertex="1" parent="84"><mxGeometry x="32.2945" y="5.833333333333334" width="27.681" height="27.681" as="geometry"/></mxCell><mxCell id="85" value="" style="group" vertex="1" connectable="0" parent="1"><mxGeometry x="270" y="140" width="120" height="30" as="geometry"/></mxCell><mxCell id="74" value="Users" style="rounded=0;whiteSpace=wrap;html=1;fillColor=#b0e3e6;strokeColor=#0e8088;fontColor=#000000;" vertex="1" parent="85"><mxGeometry width="120" height="30" as="geometry"/></mxCell><mxCell id="75" value="" style="shape=image;imageAspect=0;aspect=fixed;verticalLabelPosition=bottom;verticalAlign=top;dashed=1;image=https://dzone.com/storage/temp/12434118-spring-boot-logo.png;" vertex="1" parent="85"><mxGeometry x="2.730000000000018" y="5" width="22.27" height="20" as="geometry"/></mxCell><mxCell id="89" style="edgeStyle=orthogonalEdgeStyle;rounded=0;orthogonalLoop=1;jettySize=auto;html=1;exitX=0.5;exitY=1;exitDx=0;exitDy=0;fontColor=#000000;" edge="1" parent="1" source="74"><mxGeometry relative="1" as="geometry"><mxPoint x="379" y="320" as="targetPoint"/></mxGeometry></mxCell><mxCell id="90" value="&lt;span style=&quot;color: rgb(240 , 240 , 240) ; font-family: &amp;#34;helvetica&amp;#34;&quot;&gt;New Subscription&amp;nbsp;&lt;/span&gt;&lt;br style=&quot;color: rgb(240 , 240 , 240) ; font-family: &amp;#34;helvetica&amp;#34;&quot;&gt;&lt;span style=&quot;color: rgb(240 , 240 , 240) ; font-family: &amp;#34;helvetica&amp;#34;&quot;&gt;Event&lt;/span&gt;" style="edgeLabel;html=1;align=center;verticalAlign=middle;resizable=0;points=[];fontColor=#000000;" vertex="1" connectable="0" parent="89"><mxGeometry x="-0.5276" y="1" relative="1" as="geometry"><mxPoint as="offset"/></mxGeometry></mxCell></root></mxGraphModel></diagram></mxfile>